<?xml version="1.0" encoding="UTF-8" standalone="no"?>
<svg
   xmlns:dc="http://purl.org/dc/elements/1.1/"
   xmlns:cc="http://creativecommons.org/ns#"
   xmlns:rdf="http://www.w3.org/1999/02/22-rdf-syntax-ns#"
   xmlns:svg="http://www.w3.org/2000/svg"
   xmlns="http://www.w3.org/2000/svg"
   width="368.73907"
   height="321.24243"
   viewBox="0 0 345.6929 301.16479"
   id="svg2"
   version="1.1">
  <defs
     id="defs4" />
  <metadata
     id="metadata7">
    <rdf:RDF>
      <cc:Work
         rdf:about="">
        <dc:format>image/svg+xml</dc:format>
        <dc:type
           rdf:resource="http://purl.org/dc/dcmitype/StillImage" />
        <dc:title></dc:title>
      </cc:Work>
    </rdf:RDF>
  </metadata>
  <path
     d="m 172.53098,206.11801 q -10.86082,-20.25686 -43.96544,-40.82698 -15.45578,-9.60634 -15.45578,-24.64236 0,-6.36942 2.19305,-12.32118 2.19306,-5.74293 6.57915,-10.33727 4.17725,-4.3855 9.60765,-6.99592 5.22155,-2.40159 11.27855,-2.40159 6.16142,0 11.38298,2.40159 5.4304,2.506 9.71208,6.99592 4.17723,4.38551 6.47471,10.33727 2.19305,5.63851 2.19305,12.32118 0,-6.68267 2.29748,-12.32118 2.29748,-5.95176 6.47473,-10.33727 4.28167,-4.48992 9.71208,-6.99592 5.22153,-2.40159 11.27854,-2.40159 6.16143,0 11.38298,2.40159 5.43041,2.61042 9.60765,6.99592 4.38609,4.59434 6.57914,10.33727 2.19306,5.95176 2.19306,12.32118 0,15.24484 -15.45579,24.64236 -33.10462,20.57012 -44.06987,40.82698 z"
     style="font-style:normal;font-variant:normal;font-weight:500;font-stretch:normal;font-size:medium;line-height:125%;font-family:Inconsolata;-inkscape-font-specification:'Inconsolata Medium';text-align:center;letter-spacing:0px;word-spacing:0px;text-anchor:middle;fill:#ff9f1c;fill-opacity:1;stroke:#ff9f1c;stroke-width:7.5116291;stroke-linecap:butt;stroke-linejoin:miter;stroke-miterlimit:4;stroke-dasharray:none;stroke-opacity:1"
     id="path4433-6" />
  <path
     d="m 87.41123,202.79619 -62.82997,-52.9487 62.82997,-52.855491 14.54226,14.728691 -46.2369,37.94036 46.2369,38.40645 z"
     style="font-style:normal;font-variant:normal;font-weight:bold;font-stretch:normal;font-size:medium;line-height:125%;font-family:Consolas;-inkscape-font-specification:'Consolas Bold';text-align:center;letter-spacing:0px;word-spacing:0px;text-anchor:middle;fill:#c997c3;fill-opacity:1;stroke:#c997c3;stroke-width:7.51162863;stroke-linecap:butt;stroke-linejoin:miter;stroke-miterlimit:4;stroke-dasharray:none;stroke-opacity:1"
     id="path4430-4" />
  <path
     d="m 257.66416,96.991999 62.82999,52.855491 -62.82999,52.9487 -14.44902,-14.72869 46.14367,-38.03357 -46.14367,-38.31324 z"
     style="font-style:normal;font-variant:normal;font-weight:bold;font-stretch:normal;font-size:medium;line-height:125%;font-family:Consolas;-inkscape-font-specification:'Consolas Bold';text-align:center;letter-spacing:0px;word-spacing:0px;text-anchor:middle;fill:#c997c3;fill-opacity:1;stroke:#c997c3;stroke-width:7.51162863;stroke-linecap:butt;stroke-linejoin:miter;stroke-miterlimit:4;stroke-dasharray:none;stroke-opacity:1"
     id="path4436-3" />
  <g
     id="text4748"
     style="font-style:normal;font-variant:normal;font-weight:normal;font-stretch:normal;font-size:75.6780777px;line-height:125%;font-family:BioRhyme;-inkscape-font-specification:BioRhyme;letter-spacing:0px;word-spacing:0px;fill:#ff9f1c;fill-opacity:1;stroke:none;stroke-width:0.83462536px;stroke-linecap:butt;stroke-linejoin:miter;stroke-opacity:1">
    <path
       id="path4169"
       style="font-style:normal;font-variant:normal;font-weight:normal;font-stretch:normal;font-family:BioRhyme;-inkscape-font-specification:BioRhyme;fill:#ff9f1c;fill-opacity:1;stroke-width:0.83462536px"
       d="m 152.90552,25.03128 -9.61112,0 0,28.75767 q 0,5.524499 -2.27034,9.611116 -2.27034,4.010938 -6.2056,6.129924 -3.85958,2.118986 -8.77866,2.118986 -4.8434,0 -9.00569,-1.664918 -4.16229,-1.664917 -7.03806,-4.086616 l 3.40551,-5.448821 q 6.35696,4.69204 11.88146,4.69204 4.69204,0 7.41645,-2.800088 2.72441,-2.875767 2.72441,-8.702979 l -0.0757,-28.606314 -13.47069,0 0,-6.28128 31.02801,0 0,6.28128 z" />
    <path
       id="path4171"
       style="font-style:normal;font-variant:normal;font-weight:normal;font-stretch:normal;font-family:BioRhyme;-inkscape-font-specification:BioRhyme;fill:#ff9f1c;fill-opacity:1;stroke-width:0.83462536px"
       d="m 173.71108,71.724654 q -5.22179,0 -9.76247,-2.34602 -4.54069,-2.346021 -7.2651,-6.659671 -2.64873,-4.31365 -2.64873,-9.83815 0,-5.600178 2.64873,-9.83815 2.72441,-4.313651 7.2651,-6.659671 4.54068,-2.34602 9.76247,-2.34602 5.14611,0 9.61111,2.34602 4.54069,2.34602 7.2651,6.659671 2.72441,4.31365 2.72441,9.83815 0,5.5245 -2.64873,9.83815 -2.64874,4.31365 -7.18942,6.659671 -4.46501,2.34602 -9.76247,2.34602 z m 0,-5.978568 q 3.40551,0 6.12992,-1.58924 2.72441,-1.589239 4.23797,-4.465006 1.58924,-2.951445 1.58924,-6.811027 0,-3.859582 -1.58924,-6.735349 -1.51356,-2.951445 -4.23797,-4.540685 -2.72441,-1.589239 -6.12992,-1.589239 -5.22179,0 -8.6273,3.556869 -3.32984,3.481192 -3.32984,9.308404 0,5.827212 3.32984,9.384082 3.40551,3.481191 8.6273,3.481191 z" />
    <path
       id="path4173"
       style="font-style:normal;font-variant:normal;font-weight:normal;font-stretch:normal;font-family:BioRhyme;-inkscape-font-specification:BioRhyme;fill:#ff9f1c;fill-opacity:1;stroke-width:0.83462536px"
       d="m 243.27224,40.999355 -5.60018,0 -14.98425,33.601066 q -3.17848,7.038061 -7.18942,10.519253 -3.93526,3.55687 -9.23273,3.55687 -2.95144,0 -5.37314,-0.983815 -2.34602,-0.908137 -5.14611,-2.724411 l 3.02712,-5.675856 q 3.85958,2.800089 7.49213,2.800089 3.25416,0 5.82721,-2.118986 2.57306,-2.043308 4.54069,-6.583993 l 0.52975,-1.210849 -15.28698,-31.179368 -5.90289,0 0,-5.978568 19.97902,0 0,5.448821 -6.12993,0 10.74629,23.914273 10.51925,-23.914273 -5.82721,0 0,-5.448821 18.01138,0 0,5.978568 z" />
  </g>
  <g
     id="text4752"
     style="font-style:normal;font-variant:normal;font-weight:normal;font-stretch:normal;font-size:40.6927948px;line-height:125%;font-family:BioRhyme;-inkscape-font-specification:BioRhyme;letter-spacing:0px;word-spacing:0px;fill:#c997c3;fill-opacity:1;stroke:none;stroke-width:1.11670625px;stroke-linecap:butt;stroke-linejoin:miter;stroke-opacity:1">
    <path
       id="path4164"
       style="font-style:normal;font-variant:normal;font-weight:normal;font-stretch:normal;font-family:BioRhyme;-inkscape-font-specification:BioRhyme;fill:#c997c3;fill-opacity:1;stroke-width:1.11670625px"
       d="m 271.67486,71.389317 q -2.8078,0 -5.24937,-1.261476 -2.44157,-1.261477 -3.90651,-3.580966 -1.42424,-2.31949 -1.42424,-5.290064 0,-3.011266 1.42424,-5.290063 1.46494,-2.319489 3.90651,-3.580966 2.44157,-1.261476 5.24937,-1.261476 2.76711,0 5.16799,1.261476 2.44156,1.261477 3.90651,3.580966 1.46494,2.319489 1.46494,5.290063 0,2.970574 -1.42425,5.290064 -1.42425,2.319489 -3.86582,3.580966 -2.40087,1.261476 -5.24937,1.261476 z m 0,-3.21473 q 1.83118,0 3.29612,-0.854549 1.46494,-0.854549 2.27879,-2.400875 0.85455,-1.587019 0.85455,-3.662352 0,-2.075332 -0.85455,-3.621658 -0.81385,-1.587019 -2.27879,-2.441568 -1.46494,-0.854549 -3.29612,-0.854549 -2.8078,0 -4.63898,1.912562 -1.79048,1.871868 -1.79048,5.005213 0,3.133346 1.79048,5.045907 1.83118,1.871869 4.63898,1.871869 z" />
    <path
       id="path4166"
       style="font-style:normal;font-variant:normal;font-weight:normal;font-stretch:normal;font-family:BioRhyme;-inkscape-font-specification:BioRhyme;fill:#c997c3;fill-opacity:1;stroke-width:1.11670625px"
       d="m 297.49698,44.369302 q -1.87187,0 -3.01126,1.180091 -1.1394,1.180091 -1.1394,3.255423 l 0,2.848496 6.10392,0 0,3.214731 -6.10392,0 0,12.736844 5.6156,0 0,3.214731 -13.87624,0 0,-3.214731 4.31344,0 0,-12.736844 -4.31344,0 0,-3.214731 4.31344,0 0,-2.726417 q 0,-3.78443 2.07533,-5.859763 2.11603,-2.075332 5.61561,-2.075332 1.79048,0 3.25542,0.488313 1.50563,0.447621 3.45889,1.342862 l -1.46494,3.092653 q -1.26148,-0.73247 -2.44157,-1.139398 -1.1394,-0.406928 -2.40088,-0.406928 z" />
  </g>
  <g
     id="text4756"
     style="font-style:normal;font-variant:normal;font-weight:normal;font-stretch:normal;font-size:38.45719147px;line-height:125%;font-family:BioRhyme;-inkscape-font-specification:BioRhyme;letter-spacing:0px;word-spacing:0px;fill:#c997c3;fill-opacity:1;stroke:none;stroke-width:1.05535591px;stroke-linecap:butt;stroke-linejoin:miter;stroke-opacity:1">
    <path
       id="path4157"
       style="font-style:normal;font-variant:normal;font-weight:normal;font-stretch:normal;font-family:BioRhyme;-inkscape-font-specification:BioRhyme;fill:#c997c3;fill-opacity:1;stroke-width:1.05535591px"
       d="m 50.70263,44.469288 0,8.652868 -3.538061,0 0,-5.460921 -7.960639,0 0,19.99774 4.999435,0 0,3.191947 -13.998418,0 0,-3.191947 5.037892,0 0,-19.99774 -7.999096,0 0,5.460921 -3.538061,0 0,-8.652868 26.996948,0 z" />
    <path
       id="path4159"
       style="font-style:normal;font-variant:normal;font-weight:normal;font-stretch:normal;font-family:BioRhyme;-inkscape-font-specification:BioRhyme;fill:#c997c3;fill-opacity:1;stroke-width:1.05535591px"
       d="m 79.326197,67.812804 0,3.038118 -10.6911,0 0,-3.038118 3.345776,0 0,-7.499153 q 0,-2.230517 -1.076801,-3.461147 -1.038344,-1.23063 -3.038118,-1.23063 -3.115033,0 -6.922295,4.230291 l 0,7.960639 3.307319,0 0,3.038118 -11.152586,0 0,-3.038118 4.076462,0 0,-20.305398 -4.076462,0 0,-3.038118 7.845267,0 0,12.421673 q 2.115146,-2.307431 4.076462,-3.461147 1.999774,-1.153716 4.345663,-1.153716 3.115033,0 4.730235,1.999774 1.615202,1.961317 1.615202,5.922408 l 0,7.614524 3.614976,0 z" />
    <path
       id="path4161"
       style="font-style:normal;font-variant:normal;font-weight:normal;font-stretch:normal;font-family:BioRhyme;-inkscape-font-specification:BioRhyme;fill:#c997c3;fill-opacity:1;stroke-width:1.05535591px"
       d="m 99.665843,68.158918 q -3.69189,3.230404 -8.422125,3.230404 -2.576632,0 -4.884063,-1.076801 -2.307432,-1.076801 -3.730348,-3.15349 -1.422916,-2.076688 -1.422916,-4.92252 0,-3.038118 1.461373,-5.307093 1.461374,-2.268974 3.807262,-3.461147 2.345889,-1.23063 4.922521,-1.23063 2.268974,0 4.038005,0.730687 1.807488,0.730686 2.807375,2.038231 1.038344,1.307544 1.038344,2.999661 0,2.538174 -2.19206,3.96109 -2.153602,1.384459 -5.191721,1.384459 -1.961316,0 -3.653433,-0.384572 -1.692116,-0.423029 -3.42269,-1.192173 l 0,0.346115 q 0,1.807488 0.846058,3.191947 0.884516,1.384459 2.345889,2.115146 1.461373,0.730686 3.191947,0.730686 3.922633,0 6.84538,-2.46126 l 1.615202,2.46126 z M 91.666747,55.237302 q -2.076688,0 -3.884176,1.192173 -1.769031,1.192173 -2.538175,3.230404 2.922747,1.038344 5.845493,1.038344 1.92286,0 3.15349,-0.692229 1.269087,-0.730687 1.269087,-1.999774 0,-1.23063 -1.076801,-1.999774 -1.076801,-0.769144 -2.768918,-0.769144 z" />
  </g>
  <g
     id="text4760"
     style="font-style:normal;font-variant:normal;font-weight:normal;font-stretch:normal;font-size:75.6780777px;line-height:125%;font-family:BioRhyme;-inkscape-font-specification:BioRhyme;letter-spacing:0px;word-spacing:0px;fill:#c997c3;fill-opacity:1;stroke:none;stroke-width:0.83462536px;stroke-linecap:butt;stroke-linejoin:miter;stroke-opacity:1">
    <path
       id="path4176"
       style="font-style:normal;font-variant:normal;font-weight:normal;font-stretch:normal;font-family:BioRhyme;-inkscape-font-specification:BioRhyme;fill:#c997c3;fill-opacity:1;stroke-width:0.83462536px"
       d="m 80.504343,235.72144 0,39.3526 9.762472,0 0,6.28128 -27.244108,0 0,-6.28128 9.611116,0 0,-17.10325 -30.044197,0 0,17.10325 9.611116,0 0,6.28128 -27.244108,0 0,-6.28128 9.762472,0 0,-39.3526 -9.762472,0 0,-6.28129 27.244108,0 0,6.28129 -9.611116,0 0,16.27078 30.044197,0 0,-16.27078 -9.611116,0 0,-6.28129 27.244108,0 0,6.28129 -9.762472,0 z" />
    <path
       id="path4178"
       style="font-style:normal;font-variant:normal;font-weight:normal;font-stretch:normal;font-family:BioRhyme;-inkscape-font-specification:BioRhyme;fill:#c997c3;fill-opacity:1;stroke-width:0.83462536px"
       d="m 137.16002,280.44718 q -2.49737,1.51356 -5.82721,1.51356 -2.80009,0 -4.76772,-1.58924 -1.89195,-1.66492 -2.64873,-4.69204 -7.56781,6.73535 -14.98426,6.73535 -5.22179,0 -8.85433,-2.95145 -3.632552,-2.95144 -3.632552,-8.24891 0,-3.63254 2.043308,-6.28128 2.043304,-2.72441 5.448824,-4.08661 3.48119,-1.43789 7.49213,-1.43789 3.40551,0 6.28128,0.68111 2.87576,0.60542 5.90289,1.81627 l 0,-3.32984 q 0,-3.85958 -2.57306,-5.67585 -2.57305,-1.81627 -6.73535,-1.81627 -5.90289,0 -14.22747,3.25415 l -1.513566,-5.75153 q 8.930016,-3.78391 16.649176,-3.78391 7.34077,0 11.35171,3.63255 4.08662,3.55687 4.08662,10.44358 l 0,13.0923 q 0,3.70823 2.64873,3.70823 1.13517,0 2.34602,-0.60542 l 1.51356,5.37314 z m -33.37403,-9.61112 q 0,2.57306 2.04331,4.01094 2.04331,1.36221 4.99475,1.36221 2.57306,0 5.90289,-1.36221 3.32984,-1.3622 6.88671,-4.01094 l 0,-4.01093 q -5.14611,-1.81628 -10.89765,-1.96763 -3.70822,0 -6.35695,1.58923 -2.57306,1.51357 -2.57306,4.38933 z" />
    <path
       id="path4180"
       style="font-style:normal;font-variant:normal;font-weight:normal;font-stretch:normal;font-family:BioRhyme;-inkscape-font-specification:BioRhyme;fill:#c997c3;fill-opacity:1;stroke-width:0.83462536px"
       d="m 159.53827,260.31681 q 6.96239,1.89195 10.67061,4.76772 3.78391,2.80009 3.78391,7.56781 0,4.38933 -3.70823,7.11374 -3.70823,2.64873 -9.15705,2.64873 -3.7839,0 -7.49213,-1.28653 -3.63254,-1.3622 -6.50831,-3.70822 l 0,4.01093 -5.75154,0 0,-11.57874 3.25416,-0.30271 q 2.87577,3.25415 7.18942,5.60017 4.38933,2.27035 8.55162,2.27035 2.80009,0 4.38933,-1.0595 1.58924,-1.05949 1.58924,-3.02712 0,-2.27034 -2.49738,-3.70823 -2.49737,-1.51356 -8.17323,-3.02712 -6.81103,-1.81627 -10.51925,-4.54068 -3.63255,-2.80009 -3.63255,-7.2651 0,-2.80009 1.51356,-5.07043 1.58924,-2.34602 4.38933,-3.63255 2.87577,-1.3622 6.58399,-1.3622 3.63255,0 6.88671,1.21085 3.32983,1.21085 5.75153,3.40551 l 0,-3.63255 5.67586,0 0,11.50307 -3.32984,0.37839 q -2.11898,-3.55687 -5.82721,-5.67586 -3.63255,-2.19466 -7.26509,-2.19466 -2.95145,0 -4.8434,1.21085 -1.89195,1.13517 -1.89195,3.02712 0,2.04331 2.49737,3.48119 2.49738,1.36221 7.87052,2.87577 z" />
    <path
       id="path4182"
       style="font-style:normal;font-variant:normal;font-weight:normal;font-stretch:normal;font-family:BioRhyme;-inkscape-font-specification:BioRhyme;fill:#c997c3;fill-opacity:1;stroke-width:0.83462536px"
       d="m 230.4569,277.57141 q -1.89195,2.27034 -4.23797,3.55687 -2.34602,1.28653 -5.60018,1.28653 -4.91907,0 -8.47594,-3.70823 -3.55687,-3.70822 -4.8434,-10.44357 -3.17848,-0.0757 -5.97857,-0.83246 -2.80008,-0.83246 -5.90289,-2.27034 l 0,10.21654 7.49213,0 0,5.97857 -22.70342,0 0,-5.97857 7.9462,0 0,-39.95803 -7.9462,0 0,-5.97857 15.21129,0 0,22.70343 q 7.56781,-7.11374 15.66537,-7.11374 5.44882,0 9.08137,2.87577 3.70822,2.87576 3.70822,8.17323 0,4.23797 -2.87577,7.26509 -2.87576,3.02713 -7.34077,4.23798 1.05949,4.23797 2.95145,6.28128 1.89195,1.96763 4.31365,1.96763 3.32983,0 5.67585,-2.64874 l 3.85958,4.38933 z m -35.03895,-17.2546 q 5.82722,2.49738 11.42739,2.49738 3.93526,-0.15136 6.65967,-1.7406 2.72442,-1.66492 2.72442,-4.61636 0,-2.57306 -1.89196,-3.93526 -1.81627,-1.36221 -5.07043,-1.36221 -3.02712,0 -6.65967,1.58924 -3.55687,1.58924 -7.18942,4.61637 l 0,2.95144 z" />
    <path
       id="path4184"
       style="font-style:normal;font-variant:normal;font-weight:normal;font-stretch:normal;font-family:BioRhyme;-inkscape-font-specification:BioRhyme;fill:#c997c3;fill-opacity:1;stroke-width:0.83462536px"
       d="m 269.03617,276.05785 q -7.26509,6.35696 -16.5735,6.35696 -5.07043,0 -9.61111,-2.11899 -4.54069,-2.11898 -7.34078,-6.2056 -2.80008,-4.08662 -2.80008,-9.68679 0,-5.97857 2.87576,-10.44358 2.87577,-4.465 7.49213,-6.81102 4.61637,-2.4217 9.6868,-2.4217 4.465,0 7.94619,1.43788 3.55687,1.43788 5.5245,4.01094 2.04331,2.57305 2.04331,5.90289 0,4.99475 -4.31365,7.79484 -4.23797,2.72441 -10.21654,2.72441 -3.85958,0 -7.18942,-0.75678 -3.32983,-0.83246 -6.73534,-2.34602 l 0,0.6811 q 0,3.55687 1.66491,6.28128 1.7406,2.72441 4.61637,4.1623 2.87576,1.43788 6.28128,1.43788 7.71916,0 13.47069,-4.8434 l 3.17848,4.8434 z m -15.74104,-25.42783 q -4.08661,0 -7.64348,2.34602 -3.48119,2.34602 -4.99476,6.35696 5.75154,2.0433 11.50307,2.0433 3.78391,0 6.2056,-1.3622 2.49738,-1.43789 2.49738,-3.93526 0,-2.4217 -2.11899,-3.93526 -2.11898,-1.51356 -5.44882,-1.51356 z" />
    <path
       id="path4186"
       style="font-style:normal;font-variant:normal;font-weight:normal;font-stretch:normal;font-family:BioRhyme;-inkscape-font-specification:BioRhyme;fill:#c997c3;fill-opacity:1;stroke-width:0.83462536px"
       d="m 296.49431,275.37675 0,5.97857 -23.61156,0 0,-5.97857 7.94619,0 0,-39.95803 -7.94619,0 0,-5.97857 15.36265,0 0,45.9366 8.24891,0 z" />
    <path
       id="path4188"
       style="font-style:normal;font-variant:normal;font-weight:normal;font-stretch:normal;font-family:BioRhyme;-inkscape-font-specification:BioRhyme;fill:#c997c3;fill-opacity:1;stroke-width:0.83462536px"
       d="m 326.9429,275.37675 0,5.97857 -23.61156,0 0,-5.97857 7.9462,0 0,-39.95803 -7.9462,0 0,-5.97857 15.36265,0 0,45.9366 8.24891,0 z" />
  </g>
</svg>
