<?xml version="1.0" encoding="UTF-8" standalone="no"?>
<svg
   xmlns:dc="http://purl.org/dc/elements/1.1/"
   xmlns:cc="http://creativecommons.org/ns#"
   xmlns:rdf="http://www.w3.org/1999/02/22-rdf-syntax-ns#"
   xmlns:svg="http://www.w3.org/2000/svg"
   xmlns="http://www.w3.org/2000/svg"
   xmlns:xlink="http://www.w3.org/1999/xlink"
   xmlns:sodipodi="http://sodipodi.sourceforge.net/DTD/sodipodi-0.dtd"
   xmlns:inkscape="http://www.inkscape.org/namespaces/inkscape"
   version="1.1"
   x="0px"
   y="0px"
   viewBox="0 0 90.331001 110.00012"
   enable-background="new 0 0 100 100"
   xml:space="preserve"
   id="svg2"
   inkscape:version="0.91 r13725"
   sodipodi:docname="noun_787671_cc.svg"
   width="90.331001"
   height="110.00012"><metadata
     id="metadata24"><rdf:RDF><cc:Work
         rdf:about=""><dc:format>image/svg+xml</dc:format><dc:type
           rdf:resource="http://purl.org/dc/dcmitype/StillImage" /><dc:title></dc:title></cc:Work></rdf:RDF></metadata><defs
     id="defs22" /><sodipodi:namedview
     pagecolor="#ffffff"
     bordercolor="#666666"
     borderopacity="1"
     objecttolerance="10"
     gridtolerance="10"
     guidetolerance="10"
     inkscape:pageopacity="0"
     inkscape:pageshadow="2"
     inkscape:window-width="960"
     inkscape:window-height="1016"
     id="namedview20"
     showgrid="false"
     fit-margin-top="10"
     fit-margin-left="10"
     fit-margin-right="10"
     fit-margin-bottom="10"
     inkscape:zoom="3.776"
     inkscape:cx="45.901702"
     inkscape:cy="62.776236"
     inkscape:window-x="960"
     inkscape:window-y="27"
     inkscape:window-maximized="0"
     inkscape:current-layer="svg2" /><path
     inkscape:connector-curvature="0"
     id="path6"
     d="m 78.87,27.106 -58.855,0 c -3.91,0 -7.091,-3.181 -7.091,-7.091 0,-3.909 3.181,-7.09 7.087,-7.09 l 54.7,0.164 c 0.001,0 0.003,0 0.004,0 0.805,0 1.46,-0.652 1.462,-1.457 0.002,-0.808 -0.65,-1.464 -1.458,-1.467 L 20.015,10 C 14.493,10 10,14.493 10,20.014 l 0,60.046 0.098,0 c 0.652,4.896 4.845,8.689 9.917,8.689 l 4.563,0 0,10.763 c 0,0.174 0.093,0.335 0.244,0.423 0.076,0.043 0.159,0.065 0.243,0.065 0.085,0 0.169,-0.022 0.245,-0.066 l 6.151,-3.578 6.15,3.578 c 0.151,0.088 0.337,0.088 0.488,0.001 0.151,-0.088 0.244,-0.248 0.244,-0.423 l 0,-10.762 40.526,0 c 0.808,0 1.462,-0.655 1.462,-1.462 l 0,-58.72 C 80.332,27.761 79.678,27.106 78.87,27.106 Z M 20.989,77.224 c 4.635,0.447 8.354,4.034 9.021,8.602 l -9.021,0 0,-8.602 z M 31.98,85.826 C 31.292,80.182 26.699,75.736 20.989,75.275 l 0,-22.468 c 0,-0.539 -0.436,-0.975 -0.975,-0.975 -0.539,0 -0.975,0.436 -0.975,0.975 l 0,22.348 c -2.817,-0.364 -5.148,-2.278 -6.116,-4.858 l 0,-31.676 c 1.542,1.722 3.692,2.889 6.116,3.137 l 0,4.714 c 0,0.539 0.436,0.975 0.975,0.975 0.539,0 0.975,-0.436 0.975,-0.975 l 0,-4.776 c 6.082,-0.49 10.895,-5.502 11.074,-11.665 l 34.842,0 c 0.667,5.483 5.021,9.837 10.503,10.505 l 0,34.789 c -5.482,0.668 -9.835,5.021 -10.503,10.503 l -34.925,0 z M 30.114,30.03 c -0.176,5.089 -4.118,9.235 -9.124,9.716 l 0,-9.716 9.124,0 z m 38.761,0 8.534,0 0,8.535 C 73.003,37.921 69.518,34.436 68.875,30.03 Z m -49.835,-0.049 0,9.807 C 16.223,39.424 13.892,37.51 12.924,34.93 l 0,-7.85 c 1.599,1.604 3.737,2.67 6.116,2.901 z m -6.116,48.754 0,-4.747 c 1.542,1.722 3.692,2.889 6.116,3.137 l 0,8.626 c -3.449,-0.478 -6.116,-3.438 -6.116,-7.016 z m 55.951,7.091 c 0.644,-4.405 4.128,-7.889 8.533,-8.533 l 0,8.533 -8.533,0 z"
     style="fill:#fffcf2;fill-opacity:1" /><path
     inkscape:connector-curvature="0"
     id="path8"
     d="m 20.017,16.189 c 0,0 -0.001,0 -0.002,0 -0.537,0 -0.974,0.435 -0.975,0.973 -10e-4,0.539 0.435,0.976 0.973,0.977 l 56.085,0.109 c 0,0 0.001,0 0.002,0 0.537,0 0.974,-0.435 0.975,-0.973 10e-4,-0.539 -0.435,-0.976 -0.973,-0.977 L 20.017,16.189 Z"
     style="fill:#fffcf2;fill-opacity:1" /><path
     inkscape:connector-curvature="0"
     id="path10"
     d="m 20.015,21.891 c -0.538,0 -0.974,0.436 -0.975,0.974 0,0.539 0.435,0.975 0.974,0.976 l 57.471,0.055 c 0,0 0,0 0.001,0 0.538,0 0.974,-0.436 0.975,-0.974 0,-0.539 -0.435,-0.975 -0.974,-0.976 L 20.015,21.891 c 0,0 0,0 0,0 z"
     style="fill:#fffcf2;fill-opacity:1" /><text
     x="-4.8340001"
     y="120"
     font-size="5px"
     font-weight="bold"
     id="text16"
     style="font-weight:bold;font-size:5px;font-family:'Helvetica Neue', Helvetica, Arial-Unicode, Arial, Sans-serif;fill:#000000">Created by Maxim Kulikov</text>
<text
     x="-4.8340001"
     y="125"
     font-size="5px"
     font-weight="bold"
     id="text18"
     style="font-weight:bold;font-size:5px;font-family:'Helvetica Neue', Helvetica, Arial-Unicode, Arial, Sans-serif;fill:#000000">from the Noun Project</text>
<path
     inkscape:connector-curvature="0"
     id="path4157"
     style="font-style:normal;font-variant:normal;font-weight:500;font-stretch:normal;font-size:medium;line-height:1000%;font-family:Inconsolata;-inkscape-font-specification:'Inconsolata Medium';text-align:center;letter-spacing:0px;word-spacing:0px;text-anchor:middle;fill:none;fill-opacity:1;stroke:#fffcf2;stroke-width:2;stroke-linecap:round;stroke-linejoin:round;stroke-miterlimit:4;stroke-dasharray:none;stroke-opacity:1"
     d="m 49.915997,64.821499 q -1.649775,-3.077465 -6.678417,-6.20252 -2.347757,-1.459416 -2.347757,-3.74372 0,-0.967657 0.333128,-1.87186 0.333128,-0.872477 0.999383,-1.570459 0.634529,-0.666255 1.459416,-1.062836 0.793162,-0.364854 1.713228,-0.364854 0.93593,0 1.729092,0.364854 0.824887,0.380717 1.475279,1.062836 0.634529,0.666256 0.98352,1.570459 0.333128,0.856614 0.333128,1.87186 0,-1.015246 0.34899,-1.87186 0.348992,-0.904203 0.983521,-1.570459 0.650391,-0.682119 1.475279,-1.062836 0.793161,-0.364854 1.713228,-0.364854 0.93593,0 1.729091,0.364854 0.824887,0.396581 1.459416,1.062836 0.666256,0.697982 0.999384,1.570459 0.333127,0.904203 0.333127,1.87186 0,2.316031 -2.347757,3.74372 -5.028641,3.125055 -6.694279,6.20252 z" /><path
     style="fill:none;fill-rule:evenodd;stroke:#fffcf2;stroke-width:2.62587667;stroke-linecap:round;stroke-linejoin:round;stroke-miterlimit:4;stroke-dasharray:none;stroke-opacity:1"
     d="m 63.882461,50.569415 7.475682,7.562609 -7.649535,7.562608"
     id="path4175"
     inkscape:connector-curvature="0"
     sodipodi:nodetypes="ccc" /><use
     x="0"
     y="0"
     xlink:href="#path4175"
     id="use4179"
     transform="matrix(-1,0,0,1,99.84785,0)"
     width="100%"
     height="100%"
     style="stroke:#fffcf2;stroke-opacity:1" /></svg>